Coordinates
version=1
nRows=60
nColumns=12
inDegrees=yes

Units are S.I. units (second, meters, Newtons, ...)
Angles are in degrees

endheader
time	SC_y	SC_z	SC_x	AC_y	AC_z	AC_x	GH_y	GH_z	GH_yy	EL_x	PS_y
       0.0              -13.98          12.02           68.0           38.0         -2.708         -12.64          171.3          87.77         -85.09          17.27          128.3
   0.04775              -13.99          12.02           68.0           38.0         -2.709         -12.64          171.3          87.75         -85.07          17.27          128.3
    0.0955              -13.99          12.02          67.99          38.01          -2.71         -12.64          171.2          87.74         -85.05          17.28          128.3
    0.1432               -14.0          12.02          67.99          38.01         -2.711         -12.64          171.2          87.72         -85.03          17.29          128.3
     0.191              -14.01          12.02          67.98          38.01         -2.712         -12.64          171.1           87.7         -85.01          17.29          128.3
    0.2387              -14.02          12.03          67.98          38.01         -2.714         -12.64          171.1          87.68         -84.99           17.3          128.3
    0.2865              -14.03          12.03          67.97          38.01         -2.715         -12.64          171.0          87.66         -84.96          17.31          128.3
    0.3342              -14.03          12.03          67.97          38.02         -2.716         -12.64          171.0          87.64         -84.93          17.31          128.3
     0.382              -14.04          12.03          67.96          38.02         -2.718         -12.64          170.9          87.61          -84.9          17.32          128.3
    0.4297              -14.05          12.03          67.95          38.02         -2.719         -12.64          170.8          87.58         -84.87          17.33          128.3
    0.4775              -14.07          12.03          67.94          38.03         -2.721         -12.64          170.8          87.56         -84.84          17.34          128.3
    0.5252              -14.08          12.03          67.94          38.03         -2.723         -12.64          170.7          87.53          -84.8          17.35          128.3
     0.573              -14.09          12.03          67.93          38.04         -2.725         -12.64          170.6          87.49         -84.76          17.36          128.3
    0.6207               -14.1          12.04          67.92          38.04         -2.727         -12.64          170.5          87.46         -84.72          17.37          128.3
    0.6685              -14.12          12.04          67.91          38.04         -2.729         -12.65          170.4          87.42         -84.67          17.39          128.3
    0.7162              -14.14          12.04           67.9          38.05         -2.732         -12.65          170.3          87.38         -84.62           17.4          128.3
     0.764              -14.15          12.04          67.89          38.06         -2.735         -12.65          170.2          87.33         -84.56          17.42          128.3
    0.8117              -14.17          12.05          67.87          38.06         -2.738         -12.65          170.1          87.28          -84.5          17.43          128.3
    0.8595              -14.19          12.05          67.86          38.07         -2.741         -12.65          169.9          87.23         -84.44          17.45          128.3
    0.9072              -14.22          12.05          67.85          38.08         -2.744         -12.65          169.8          87.17         -84.37          17.47          128.3
     0.955              -14.24          12.05          67.83          38.08         -2.748         -12.65          169.6          87.11         -84.29          17.49          128.3
     1.003              -14.27          12.06          67.81          38.09         -2.753         -12.65          169.4          87.04          -84.2          17.51          128.4
      1.05               -14.3          12.06          67.79           38.1         -2.757         -12.66          169.2          86.96         -84.11          17.54          128.4
     1.098              -14.34          12.07          67.77          38.11         -2.763         -12.66          169.0          86.87          -84.0          17.57          128.4
     1.146              -14.37          12.07          67.74          38.13         -2.768         -12.66          168.8          86.78         -83.88           17.6          128.4
     1.194              -14.42          12.08          67.72          38.14         -2.775         -12.66          168.5          86.67         -83.75          17.64          128.4
     1.241              -14.46          12.08          67.68          38.15         -2.782         -12.66          168.2          86.55          -83.6          17.68          128.4
     1.289              -14.52          12.09          67.65          38.17          -2.79         -12.67          167.8          86.41         -83.44          17.72          128.4
     1.337              -14.58           12.1          67.61          38.19           -2.8         -12.67          167.4          86.26         -83.25          17.78          128.4
     1.385              -14.65          12.11          67.56          38.21          -2.81         -12.68          167.0          86.09         -83.04          17.83          128.4
     1.432              -14.73          12.12          67.51          38.24         -2.822         -12.68          166.5          85.89          -82.8           17.9          128.4
      1.48              -14.82          12.13          67.45          38.27         -2.836         -12.68          165.9          85.66         -82.52          17.98          128.4
     1.528              -14.92          12.14          67.39           38.3         -2.852         -12.69          165.3           85.4          -82.2          18.07          128.5
     1.576              -15.04          12.16          67.31          38.34         -2.871          -12.7          164.5          85.09         -81.82          18.17          128.5
     1.623              -15.18          12.17          67.22          38.38         -2.892         -12.71          163.6          84.73         -81.39          18.29          128.5
     1.671              -15.35           12.2          67.11          38.44         -2.918         -12.71          162.5          84.31         -80.87          18.43          128.5
     1.719              -15.55          12.22          66.98           38.5         -2.948         -12.73          161.2          83.81         -80.26           18.6          128.6
     1.767              -15.79          12.25          66.82          38.57         -2.985         -12.74          159.7          83.21         -79.53           18.8          128.6
     1.814              -16.07          12.29          66.64          38.66         -3.029         -12.76          157.8          82.49         -78.64          19.05          128.7
     1.862              -16.43          12.33          66.41          38.78         -3.083         -12.78          155.6           81.6         -77.56          19.34          128.7
      1.91              -16.86          12.39          66.12          38.91         -3.149          -12.8          152.8          80.51         -76.22          19.71          128.8
     1.958               -17.4          12.46          65.77          39.09         -3.232         -12.83          149.3          79.14         -74.55          20.17          128.9
     2.005              -18.08          12.55          65.33           39.3         -3.336         -12.87          144.9          77.42         -72.45          20.75          129.0
     2.053              -18.95          12.66          64.76          39.58         -3.469         -12.92          139.3          75.24         -69.78          21.48          129.2
     2.101              -20.06           12.8          64.04          39.93         -3.639         -12.98          132.2          72.44         -66.37          22.43          129.3
     2.149              -21.48          12.98          63.11          40.38         -3.857         -13.06          123.1          68.85         -61.98          23.63          129.6
     2.196               -23.3          13.21          61.93          40.95         -4.135         -13.16          111.4          64.26         -56.38          25.18          129.9
     2.244              -25.58          13.51          60.44          41.68         -4.486         -13.29          96.68           58.5         -49.33          27.11          130.3
     2.292              -28.37          13.86          58.62          42.56         -4.912         -13.45          78.77          51.47         -40.75          29.48          130.8
      2.34               -31.6          14.27          56.52          43.58         -5.407         -13.63          58.01          43.32          -30.8          32.22          131.3
     2.387              -35.09          14.72          54.24          44.69         -5.942         -13.83          35.54          34.51         -20.03          35.18          131.9
     2.435              -38.59          15.17          51.96           45.8         -6.478         -14.03          13.06          25.69         -9.254          38.15          132.5
     2.483              -41.82          15.58          49.86          46.82         -6.972         -14.21         -7.702          17.54         0.6959          40.89          133.1
     2.531               -44.6          15.94          48.04          47.71         -7.399         -14.37         -25.61          10.51           9.28          43.25          133.5
     2.578              -46.89          16.23          46.55          48.43         -7.749          -14.5         -40.31          4.748          16.32          45.19          133.9
     2.626              -48.71          16.46          45.37          49.01         -8.027          -14.6          -52.0         0.1624          21.93          46.73          134.2
     2.674              -50.13          16.65          44.44          49.46         -8.245         -14.68         -61.15         -3.428          26.31          47.94          134.5
     2.722              -51.24          16.79          43.72          49.81         -8.415         -14.75         -68.28         -6.225          29.73          48.88          134.7
     2.769               -52.1           16.9          43.15          50.08         -8.548          -14.8         -73.85         -8.411           32.4          49.62          134.8
     2.817              -52.79          16.99          42.71           50.3         -8.652         -14.83         -78.23         -10.13           34.5           50.2          134.9
